<svg version="1.1" viewBox="0.0 0.0 960.0 720.0" fill="none" stroke="none" stroke-linecap="square" stroke-miterlimit="10" xmlns:xlink="http://www.w3.org/1999/xlink" xmlns="http://www.w3.org/2000/svg"><clipPath id="p.0"><path d="m0 0l960.0 0l0 720.0l-960.0 0l0 -720.0z" clip-rule="nonzero"/></clipPath><g clip-path="url(#p.0)"><path fill="#000000" fill-opacity="0.0" d="m0 0l960.0 0l0 720.0l-960.0 0z" fill-rule="evenodd"/><defs><linearGradient id="p.1" gradientUnits="userSpaceOnUse" gradientTransform="matrix(11.313723904622817 0.0 0.0 11.313723904622817 0.0 0.0)" spreadMethod="pad" x1="37.74960996915023" y1="26.16288084238261" x2="37.74957009585216" y2="37.476604746935166"><stop offset="0.0" stop-color="#1155cc"/><stop offset="1.0" stop-color="#93bc81"/></linearGradient></defs><path fill="url(#p.1)" d="m470.9195 311.10504c10.070038 0 17.375153 0.8731384 21.915405 2.6193848c6.286499 2.4447327 11.622253 7.266327 16.007263 14.464752c4.404419 7.179016 6.6066284 17.462463 6.6066284 30.850372c0 9.662567 -1.1253662 17.889313 -3.3760376 24.680298c-2.2313538 6.7715454 -5.355194 12.165527 -9.3715515 16.181885c-2.8522034 2.8522034 -6.684265 5.0641174 -11.496124 6.635742c-4.7924805 1.5716248 -11.408844 2.3574219 -19.84903 2.3574219l-27.328766 0l0 -97.789856zm-43.83081 -15.1050415l0 127.99994l46.188232 0c7.741699 0 14.590881 -0.7276001 20.547516 -2.1828003c5.9760437 -1.4552002 11.069275 -3.589508 15.279663 -6.402893c4.229828 -2.8328247 8.120087 -6.7036743 11.670746 -11.612549c3.5507202 -4.928314 6.4611206 -11.146881 8.731262 -18.655762c2.2701416 -7.50885 3.4051514 -16.123688 3.4051514 -25.844452c0 -11.408813 -1.6782837 -21.546753 -5.034973 -30.413818c-3.3372803 -8.886475 -8.382019 -16.181885 -15.134155 -21.886292c-5.180542 -4.423828 -11.437927 -7.479767 -18.772156 -9.167816c-5.2387695 -1.2223816 -12.83493 -1.8335571 -22.788544 -1.8335571z" fill-rule="evenodd"/><path stroke="#000000" stroke-width="1.0" stroke-linejoin="round" stroke-linecap="butt" d="m470.9195 311.10504c10.070038 0 17.375153 0.8731384 21.915405 2.6193848c6.286499 2.4447327 11.622253 7.266327 16.007263 14.464752c4.404419 7.179016 6.6066284 17.462463 6.6066284 30.850372c0 9.662567 -1.1253662 17.889313 -3.3760376 24.680298c-2.2313538 6.7715454 -5.355194 12.165527 -9.3715515 16.181885c-2.8522034 2.8522034 -6.684265 5.0641174 -11.496124 6.635742c-4.7924805 1.5716248 -11.408844 2.3574219 -19.84903 2.3574219l-27.328766 0l0 -97.789856zm-43.83081 -15.1050415l0 127.99994l46.188232 0c7.741699 0 14.590881 -0.7276001 20.547516 -2.1828003c5.9760437 -1.4552002 11.069275 -3.589508 15.279663 -6.402893c4.229828 -2.8328247 8.120087 -6.7036743 11.670746 -11.612549c3.5507202 -4.928314 6.4611206 -11.146881 8.731262 -18.655762c2.2701416 -7.50885 3.4051514 -16.123688 3.4051514 -25.844452c0 -11.408813 -1.6782837 -21.546753 -5.034973 -30.413818c-3.3372803 -8.886475 -8.382019 -16.181885 -15.134155 -21.886292c-5.180542 -4.423828 -11.437927 -7.479767 -18.772156 -9.167816c-5.2387695 -1.2223816 -12.83493 -1.8335571 -22.788544 -1.8335571z" fill-rule="evenodd"/><defs><linearGradient id="p.2" gradientUnits="userSpaceOnUse" gradientTransform="matrix(8.137479060078318 0.0 0.0 8.137479060078318 0.0 0.0)" spreadMethod="pad" x1="62.781270567273495" y1="32.30214163472934" x2="62.78124032903997" y2="40.43962069475147"><stop offset="0.0" stop-color="#1155cc"/><stop offset="1.0" stop-color="#93bc81"/></linearGradient></defs><path fill="url(#p.2)" d="m536.75366 262.8582c-7.066223 0 -12.695496 1.6294861 -16.887878 4.888397c-4.192383 3.2489624 -6.609741 7.977417 -7.252136 14.185394l9.382141 0.8547058c0.033813477 -4.1386414 1.3692627 -7.377594 4.0064087 -9.716827c2.637146 -2.3392334 6.1533203 -3.50885 10.548584 -3.50885c4.1585693 0 7.5282593 1.1046448 10.109009 3.3139038c2.592102 2.1993103 3.8881226 4.903412 3.8881226 8.112366c0 3.0589905 -1.4199829 6.307953 -4.26001 9.746826c-2.8399658 3.4288635 -8.300232 8.082367 -16.380676 13.960449c-5.206665 3.7787476 -9.190552 7.107666 -11.95166 9.986725c-2.749817 2.8790588 -4.750244 5.8031006 -6.00119 8.772125c-0.7776184 1.7994385 -1.1326294 3.6737976 -1.0650024 5.623169l49.14206 0l0 -7.78244l-36.4635 0c1.0142822 -1.4695435 2.2990723 -2.9290466 3.854309 -4.3785706c1.5552368 -1.4595337 5.071411 -4.2286377 10.548523 -8.307312c6.559021 -4.918396 11.247314 -8.787109 14.064758 -11.606201c2.8287354 -2.8190918 4.8516846 -5.5032043 6.0687866 -8.052368c1.2171631 -2.5491638 1.8257446 -5.1433105 1.8257446 -7.7824707c0 -5.1882935 -2.0792847 -9.536865 -6.237854 -13.045746c-4.1585693 -3.50885 -9.804749 -5.263275 -16.938538 -5.263275z" fill-rule="evenodd"/><path stroke="#000000" stroke-width="1.0" stroke-linejoin="round" stroke-linecap="butt" d="m536.75366 262.8582c-7.066223 0 -12.695496 1.6294861 -16.887878 4.888397c-4.192383 3.2489624 -6.609741 7.977417 -7.252136 14.185394l9.382141 0.8547058c0.033813477 -4.1386414 1.3692627 -7.377594 4.0064087 -9.716827c2.637146 -2.3392334 6.1533203 -3.50885 10.548584 -3.50885c4.1585693 0 7.5282593 1.1046448 10.109009 3.3139038c2.592102 2.1993103 3.8881226 4.903412 3.8881226 8.112366c0 3.0589905 -1.4199829 6.307953 -4.26001 9.746826c-2.8399658 3.4288635 -8.300232 8.082367 -16.380676 13.960449c-5.206665 3.7787476 -9.190552 7.107666 -11.95166 9.986725c-2.749817 2.8790588 -4.750244 5.8031006 -6.00119 8.772125c-0.7776184 1.7994385 -1.1326294 3.6737976 -1.0650024 5.623169l49.14206 0l0 -7.78244l-36.4635 0c1.0142822 -1.4695435 2.2990723 -2.9290466 3.854309 -4.3785706c1.5552368 -1.4595337 5.071411 -4.2286377 10.548523 -8.307312c6.559021 -4.918396 11.247314 -8.787109 14.064758 -11.606201c2.8287354 -2.8190918 4.8516846 -5.5032043 6.0687866 -8.052368c1.2171631 -2.5491638 1.8257446 -5.1433105 1.8257446 -7.7824707c0 -5.1882935 -2.0792847 -9.536865 -6.237854 -13.045746c-4.1585693 -3.50885 -9.804749 -5.263275 -16.938538 -5.263275z" fill-rule="evenodd"/></g></svg>